<svg width="76" height="27" viewBox="0 0 76 27" fill="none" xmlns="http://www.w3.org/2000/svg">
<path d="M20.16 8.72C20.16 10.76 19.296 12.524 17.568 14.012C17.04 14.468 16.464 14.924 15.84 15.38L8.1 20.96H20.16V26H0.72V19.16L13.68 9.8V8C13.68 6.56 12.96 5.84 11.52 5.84H1.44V0.799998H12.96C15.48 0.799998 17.304 1.376 18.432 2.528C19.584 3.656 20.16 5.48 20.16 8V8.72ZM37.4344 7.64C37.4344 6.2 36.7144 5.48 35.2744 5.48H31.3144C29.8744 5.48 29.1544 6.2 29.1544 7.64V19.16C29.1544 20.6 29.8744 21.32 31.3144 21.32H35.2744C36.7144 21.32 37.4344 20.6 37.4344 19.16V7.64ZM43.9144 19.16C43.9144 21.68 43.3384 23.516 42.1864 24.668C41.0584 25.796 39.2344 26.36 36.7144 26.36H29.8744C27.3544 26.36 25.5184 25.796 24.3664 24.668C23.2384 23.516 22.6744 21.68 22.6744 19.16V7.64C22.6744 5.12 23.2384 3.296 24.3664 2.168C25.5184 1.016 27.3544 0.439999 29.8744 0.439999H36.7144C39.2344 0.439999 41.0584 1.016 42.1864 2.168C43.3384 3.296 43.9144 5.12 43.9144 7.64V19.16ZM50.7516 26L65.1516 0.799998H70.5516L56.5116 26H50.7516ZM58.3116 9.26C58.3116 10.7 57.9156 11.816 57.1236 12.608C56.3556 13.376 55.2516 13.76 53.8116 13.76H50.5716C49.1316 13.76 48.0156 13.376 47.2236 12.608C46.4556 11.816 46.0716 10.7 46.0716 9.26V4.94C46.0716 3.5 46.4556 2.396 47.2236 1.628C48.0156 0.835999 49.1316 0.439999 50.5716 0.439999H53.8116C55.2516 0.439999 56.3556 0.835999 57.1236 1.628C57.9156 2.396 58.3116 3.5 58.3116 4.94V9.26ZM53.9916 4.94C53.9916 4.1 53.5716 3.68 52.7316 3.68H51.6516C50.8116 3.68 50.3916 4.1 50.3916 4.94V9.26C50.3916 10.1 50.8116 10.52 51.6516 10.52H52.7316C53.5716 10.52 53.9916 10.1 53.9916 9.26V4.94ZM75.5916 21.86C75.5916 23.3 75.1956 24.416 74.4036 25.208C73.6356 25.976 72.5316 26.36 71.0916 26.36H67.8516C66.4116 26.36 65.2956 25.976 64.5036 25.208C63.7356 24.416 63.3516 23.3 63.3516 21.86V17.54C63.3516 16.1 63.7356 14.996 64.5036 14.228C65.2956 13.436 66.4116 13.04 67.8516 13.04H71.0916C72.5316 13.04 73.6356 13.436 74.4036 14.228C75.1956 14.996 75.5916 16.1 75.5916 17.54V21.86ZM71.2716 17.54C71.2716 16.7 70.8516 16.28 70.0116 16.28H68.9316C68.0916 16.28 67.6716 16.7 67.6716 17.54V21.86C67.6716 22.7 68.0916 23.12 68.9316 23.12H70.0116C70.8516 23.12 71.2716 22.7 71.2716 21.86V17.54Z" fill="#F1F1F1" fill-opacity="0.7"/>
</svg>
