<svg width="78" height="27" viewBox="0 0 78 27" fill="none" xmlns="http://www.w3.org/2000/svg">
<path d="M8.72 15.92C7.28 15.92 6.56 16.64 6.56 18.08V19.52C6.56 20.072 6.716 20.516 7.028 20.852C7.364 21.164 7.808 21.32 8.36 21.32H13.76C14.312 21.32 14.744 21.164 15.056 20.852C15.392 20.516 15.56 20.072 15.56 19.52V18.08C15.56 16.64 14.84 15.92 13.4 15.92H8.72ZM9.44 5.48C8 5.48 7.28 6.2 7.28 7.64V8.72C7.28 10.16 8 10.88 9.44 10.88H12.68C14.12 10.88 14.84 10.16 14.84 8.72V7.64C14.84 6.2 14.12 5.48 12.68 5.48H9.44ZM22.04 19.52C22.04 21.872 21.488 23.6 20.384 24.704C19.28 25.808 17.552 26.36 15.2 26.36H6.92C4.568 26.36 2.84 25.808 1.736 24.704C0.632 23.6 0.08 21.872 0.08 19.52V19.16C0.08 17.336 0.536 15.824 1.448 14.624C2.168 13.664 3.152 13.016 4.4 12.68C3.32 12.32 2.444 11.696 1.772 10.808C1.124 9.896 0.8 8.72 0.8 7.28V6.92C0.8 4.736 1.352 3.116 2.456 2.06C3.56 0.979999 5.288 0.439999 7.64 0.439999H14.48C16.832 0.439999 18.56 0.979999 19.664 2.06C20.768 3.116 21.32 4.736 21.32 6.92V7.28C21.32 8.72 20.984 9.896 20.312 10.808C19.664 11.696 18.8 12.32 17.72 12.68C19.664 13.208 20.984 14.504 21.68 16.568C21.92 17.312 22.04 18.176 22.04 19.16V19.52ZM39.3172 7.64C39.3172 6.2 38.5972 5.48 37.1572 5.48H33.1972C31.7572 5.48 31.0372 6.2 31.0372 7.64V19.16C31.0372 20.6 31.7572 21.32 33.1972 21.32H37.1572C38.5972 21.32 39.3172 20.6 39.3172 19.16V7.64ZM45.7972 19.16C45.7972 21.68 45.2212 23.516 44.0692 24.668C42.9412 25.796 41.1172 26.36 38.5972 26.36H31.7572C29.2372 26.36 27.4012 25.796 26.2492 24.668C25.1212 23.516 24.5572 21.68 24.5572 19.16V7.64C24.5572 5.12 25.1212 3.296 26.2492 2.168C27.4012 1.016 29.2372 0.439999 31.7572 0.439999H38.5972C41.1172 0.439999 42.9412 1.016 44.0692 2.168C45.2212 3.296 45.7972 5.12 45.7972 7.64V19.16ZM52.6344 26L67.0344 0.799998H72.4344L58.3944 26H52.6344ZM60.1944 9.26C60.1944 10.7 59.7984 11.816 59.0064 12.608C58.2384 13.376 57.1344 13.76 55.6944 13.76H52.4544C51.0144 13.76 49.8984 13.376 49.1064 12.608C48.3384 11.816 47.9544 10.7 47.9544 9.26V4.94C47.9544 3.5 48.3384 2.396 49.1064 1.628C49.8984 0.835999 51.0144 0.439999 52.4544 0.439999H55.6944C57.1344 0.439999 58.2384 0.835999 59.0064 1.628C59.7984 2.396 60.1944 3.5 60.1944 4.94V9.26ZM55.8744 4.94C55.8744 4.1 55.4544 3.68 54.6144 3.68H53.5344C52.6944 3.68 52.2744 4.1 52.2744 4.94V9.26C52.2744 10.1 52.6944 10.52 53.5344 10.52H54.6144C55.4544 10.52 55.8744 10.1 55.8744 9.26V4.94ZM77.4744 21.86C77.4744 23.3 77.0784 24.416 76.2864 25.208C75.5184 25.976 74.4144 26.36 72.9744 26.36H69.7344C68.2944 26.36 67.1784 25.976 66.3864 25.208C65.6184 24.416 65.2344 23.3 65.2344 21.86V17.54C65.2344 16.1 65.6184 14.996 66.3864 14.228C67.1784 13.436 68.2944 13.04 69.7344 13.04H72.9744C74.4144 13.04 75.5184 13.436 76.2864 14.228C77.0784 14.996 77.4744 16.1 77.4744 17.54V21.86ZM73.1544 17.54C73.1544 16.7 72.7344 16.28 71.8944 16.28H70.8144C69.9744 16.28 69.5544 16.7 69.5544 17.54V21.86C69.5544 22.7 69.9744 23.12 70.8144 23.12H71.8944C72.7344 23.12 73.1544 22.7 73.1544 21.86V17.54Z" fill="#F1F1F1" fill-opacity="0.7"/>
</svg>
