<svg width="14" height="16" viewBox="0 0 14 16" fill="none" xmlns="http://www.w3.org/2000/svg">
<path d="M5.87698 15.0383C5.86635 14.9728 5.86145 14.9066 5.86231 14.8403L5.86231 3.55262L5.74783 3.79875C5.63396 4.03933 5.47898 4.2582 5.28991 4.44556L2.12456 7.6109C1.72661 8.02779 1.08642 8.09783 0.607715 7.7769C0.0976031 7.40337 -0.0131553 6.68706 0.360369 6.17691C0.390563 6.1357 0.423475 6.09652 0.458892 6.05971L6.18285 0.335755C6.62968 -0.111572 7.35451 -0.111965 7.80184 0.334861C7.80212 0.335147 7.80244 0.335469 7.80273 0.335755L13.5267 6.05971C13.9731 6.5074 13.9721 7.23223 13.5244 7.6787C13.4892 7.71383 13.4517 7.74663 13.4122 7.7769C12.9335 8.09783 12.2933 8.02779 11.8954 7.6109L8.72429 4.45128C8.55615 4.28332 8.41516 4.09021 8.30644 3.87888L8.15189 3.53545L8.15189 14.7773C8.17361 15.3621 7.7651 15.8752 7.19027 15.9851C6.56618 16.0863 5.97822 15.6624 5.87698 15.0383Z" fill="#2194FF"/>
</svg>
